<?xml version="1.0" encoding="utf-8"?>
<!-- Generator: Adobe Illustrator 27.9.0, SVG Export Plug-In . SVG Version: 6.00 Build 0)  -->
<svg version="1.1" id="Layer_1" xmlns="http://www.w3.org/2000/svg" xmlns:xlink="http://www.w3.org/1999/xlink" x="0px" y="0px"
	 viewBox="0 0 294.45 77.59" style="enable-background:new 0 0 294.45 77.59;" xml:space="preserve">
<style type="text/css">
	.st0{fill:#39888C;}
	.st1{fill:#73BF44;}
</style>
<g>
	<g>
		<path class="st0" d="M0,54.72v-3.24h0.72c1.1,0,2.06-0.12,2.88-0.36c0.82-0.24,1.46-0.73,1.94-1.48c0.48-0.74,0.72-1.84,0.72-3.28
			V24.12c0-1.39-0.23-2.44-0.68-3.13c-0.46-0.7-1.1-1.15-1.94-1.37C2.8,19.4,1.85,19.3,0.79,19.3H0.58v-3.17h12.38l0.94,5.62h0.36
			c0.96-1.82,1.99-3.19,3.1-4.1c1.1-0.91,2.31-1.52,3.64-1.84c1.32-0.31,2.72-0.47,4.21-0.47c1.58,0,3.07,0.22,4.46,0.65
			c1.39,0.43,2.6,1.1,3.64,2.02c1.03,0.91,1.84,2.16,2.41,3.74h0.65c0.96-1.82,2.03-3.19,3.2-4.1c1.18-0.91,2.45-1.52,3.82-1.84
			c1.37-0.31,2.8-0.47,4.28-0.47c3.7,0,6.59,1.12,8.68,3.35s3.13,5.8,3.13,10.69V46.3c0,1.49,0.22,2.6,0.65,3.35
			c0.43,0.75,1.06,1.24,1.87,1.48c0.82,0.24,1.75,0.36,2.81,0.36h0.22v3.24H51.55V30.17c0-3.12-0.53-5.53-1.58-7.24
			c-1.06-1.7-2.9-2.56-5.54-2.56c-1.82,0-3.29,0.49-4.39,1.48c-1.1,0.98-1.9,2.28-2.38,3.89c-0.48,1.61-0.72,3.35-0.72,5.22V46.3
			c0,1.49,0.23,2.6,0.68,3.35c0.46,0.75,1.08,1.24,1.87,1.48c0.79,0.24,1.72,0.36,2.77,0.36h0.22v3.24H29.02V30.17
			c0-3.12-0.53-5.53-1.58-7.24c-1.06-1.7-2.88-2.56-5.47-2.56c-1.92,0-3.46,0.53-4.61,1.58c-1.15,1.06-1.97,2.47-2.45,4.25
			c-0.48,1.78-0.72,3.67-0.72,5.69v14.83c0,1.39,0.26,2.42,0.79,3.1c0.53,0.67,1.21,1.12,2.05,1.33c0.84,0.22,1.79,0.32,2.84,0.32
			h0.22v3.24H0z"/>
		<path class="st0" d="M83.74,55.44c-5.47,0-9.71-1.73-12.71-5.18c-3-3.46-4.5-8.3-4.5-14.54c0-6.77,1.44-11.86,4.32-15.26
			c2.88-3.41,6.94-5.11,12.17-5.11c4.8,0,8.58,1.45,11.34,4.36c2.76,2.9,4.14,7.21,4.14,12.92V36H74.66
			c0.1,5.14,1.02,8.87,2.77,11.2c1.75,2.33,4.28,3.49,7.6,3.49c2.5,0,4.62-0.53,6.37-1.58c1.75-1.06,3.06-2.28,3.92-3.67
			c0.43,0.19,0.79,0.53,1.08,1.01c0.29,0.48,0.43,1.06,0.43,1.73c0,1.06-0.47,2.15-1.4,3.28c-0.94,1.13-2.38,2.08-4.32,2.84
			C89.17,55.06,86.71,55.44,83.74,55.44z M90.22,31.9c0-3.79-0.55-6.81-1.66-9.07c-1.1-2.26-2.98-3.38-5.62-3.38
			c-2.45,0-4.37,1.07-5.76,3.2c-1.39,2.14-2.19,5.22-2.38,9.25H90.22z"/>
		<path class="st0" d="M116.21,55.44c-3.17,0-5.84-0.7-8.03-2.09c-2.19-1.39-3.84-3.56-4.97-6.52c-1.13-2.95-1.69-6.73-1.69-11.34
			c0-4.66,0.56-8.47,1.69-11.45c1.13-2.98,2.78-5.17,4.97-6.59c2.18-1.42,4.84-2.12,7.96-2.12c2.74,0,4.98,0.58,6.73,1.73
			c1.75,1.15,3.16,2.64,4.21,4.46h0.43c-0.14-1.25-0.25-2.63-0.32-4.14s-0.11-2.84-0.11-4v-5.4c0-1.39-0.28-2.42-0.83-3.1
			c-0.55-0.67-1.27-1.12-2.16-1.33c-0.89-0.22-1.86-0.32-2.92-0.32h-0.58V0H135v46.51c0,1.44,0.28,2.52,0.83,3.24
			c0.55,0.72,1.27,1.19,2.16,1.4c0.89,0.22,1.86,0.32,2.92,0.32h0.5v3.24h-12.67l-1.15-6.26h-0.36c-1.05,2.16-2.45,3.86-4.18,5.11
			C121.32,54.82,119.04,55.44,116.21,55.44z M117.86,50.62c3.5,0,5.92-1.25,7.24-3.74c1.32-2.5,1.98-6.31,1.98-11.45
			c0-4.94-0.65-8.72-1.95-11.34c-1.29-2.62-3.72-3.92-7.27-3.92c-1.97,0-3.56,0.59-4.79,1.76c-1.22,1.18-2.11,2.9-2.66,5.18
			c-0.55,2.28-0.83,5.08-0.83,8.39c0,5.04,0.63,8.82,1.91,11.34C112.76,49.36,114.89,50.62,117.86,50.62z"/>
	</g>
	<g>
		<path class="st1" d="M142.63,72.72v-3.24h0.65c1.01,0,1.93-0.12,2.77-0.36c0.84-0.24,1.54-0.72,2.09-1.44
			c0.55-0.72,0.83-1.8,0.83-3.24V25.06c0-1.49-0.26-2.58-0.79-3.28c-0.53-0.7-1.21-1.15-2.05-1.37c-0.84-0.22-1.76-0.32-2.77-0.32
			h-0.86v-3.24h13.03l0.86,6.26h0.29c1.1-2.11,2.52-3.8,4.25-5.08c1.73-1.27,3.98-1.91,6.77-1.91c4.8,0,8.46,1.6,10.98,4.79
			c2.52,3.19,3.78,8.27,3.78,15.23c0,6.96-1.26,12.05-3.78,15.26c-2.52,3.22-6.13,4.82-10.84,4.82c-2.78,0-5.05-0.58-6.8-1.73
			c-1.75-1.15-3.16-2.64-4.21-4.46h-0.29c0.1,0.82,0.16,1.75,0.18,2.81c0.02,1.06,0.06,2.06,0.11,3.02
			c0.05,0.96,0.07,1.77,0.07,2.45v6.41c0,1.34,0.28,2.36,0.83,3.06c0.55,0.69,1.26,1.15,2.12,1.37c0.86,0.22,1.77,0.32,2.74,0.32
			h0.58v3.24H142.63z M166.03,51.41c2.98,0,5.1-1.3,6.37-3.89c1.27-2.59,1.91-6.41,1.91-11.45s-0.64-8.82-1.91-11.34
			c-1.27-2.52-3.4-3.78-6.37-3.78c-2.35,0-4.19,0.55-5.51,1.66c-1.32,1.1-2.26,2.78-2.81,5.04c-0.55,2.26-0.83,5.09-0.83,8.5
			c0,3.31,0.28,6.1,0.83,8.35c0.55,2.26,1.5,3.97,2.84,5.15C161.9,50.82,163.73,51.41,166.03,51.41z"/>
		<path class="st1" d="M196.7,56.16c-2.11,0-4.02-0.42-5.72-1.26c-1.7-0.84-3.04-2.12-4-3.85c-0.96-1.73-1.44-3.89-1.44-6.48
			c0-3.84,1.34-6.68,4.03-8.53c2.69-1.85,6.79-2.87,12.31-3.06l5.9-0.22v-4.18c0-1.73-0.13-3.24-0.4-4.54
			c-0.26-1.3-0.83-2.31-1.69-3.06c-0.86-0.74-2.18-1.12-3.96-1.12c-1.68,0-2.96,0.34-3.85,1.01c-0.89,0.67-1.49,1.6-1.8,2.77
			c-0.31,1.18-0.47,2.53-0.47,4.07c-2.3,0-4.06-0.35-5.26-1.04c-1.2-0.7-1.8-1.88-1.8-3.56c0-1.68,0.61-3.04,1.84-4.07
			c1.22-1.03,2.86-1.79,4.9-2.27c2.04-0.48,4.28-0.72,6.73-0.72c4.56,0,7.98,0.94,10.26,2.81c2.28,1.87,3.42,5.09,3.42,9.65v18.5
			c0,1.34,0.14,2.39,0.43,3.13c0.29,0.74,0.77,1.27,1.44,1.58c0.67,0.31,1.54,0.47,2.59,0.47h0.22v3.24h-10.73l-1.22-5.83h-0.58
			c-1.06,1.3-2.06,2.44-3.02,3.42c-0.96,0.98-2.06,1.75-3.31,2.3C200.28,55.88,198.67,56.16,196.7,56.16z M199.01,51.48
			c1.82,0,3.38-0.4,4.68-1.19s2.3-1.93,3.02-3.42c0.72-1.49,1.08-3.22,1.08-5.18V36l-4.25,0.22c-2.5,0.1-4.45,0.49-5.87,1.19
			c-1.42,0.7-2.44,1.67-3.06,2.92c-0.62,1.25-0.94,2.78-0.94,4.61c0,1.44,0.19,2.65,0.58,3.64c0.38,0.98,0.97,1.72,1.76,2.2
			C196.81,51.24,197.81,51.48,199.01,51.48z"/>
		<path class="st1" d="M219.53,55.44V52.2h0.65c1.15,0,2.14-0.13,2.95-0.4c0.82-0.26,1.6-0.73,2.34-1.4
			c0.74-0.67,1.6-1.61,2.56-2.81l9.07-11.52l-9.07-12.17c-0.67-0.82-1.36-1.51-2.05-2.09c-0.7-0.58-1.38-1.01-2.05-1.3
			c-0.67-0.29-1.37-0.43-2.09-0.43h-0.94v-3.24h19.44v3.24h-0.22c-1.63,0-2.72,0.2-3.28,0.61c-0.55,0.41-0.83,0.9-0.83,1.48
			c0,0.48,0.14,0.96,0.43,1.44c0.29,0.48,0.7,1.1,1.22,1.87l4.54,6.05l3.67-5.04c0.53-0.82,0.96-1.58,1.3-2.3
			c0.34-0.72,0.5-1.39,0.5-2.02c0-0.86-0.36-1.43-1.08-1.69c-0.72-0.26-1.63-0.4-2.74-0.4h-0.22v-3.24h15.98v3.24h-0.65
			c-0.91,0-1.74,0.11-2.48,0.32c-0.74,0.22-1.48,0.66-2.2,1.33c-0.72,0.67-1.58,1.66-2.59,2.95l-7.42,9.65l10.58,14.04
			c0.72,0.91,1.4,1.66,2.05,2.23c0.65,0.58,1.28,0.98,1.91,1.22c0.62,0.24,1.22,0.36,1.8,0.36h0.94v3.24h-19.73V52.2h0.36
			c1.44,0,2.52-0.2,3.24-0.61c0.72-0.41,1.08-1,1.08-1.76c0-0.53-0.18-1.12-0.54-1.76s-1.09-1.72-2.2-3.2l-4.68-6.05l-5.04,6.84
			c-0.43,0.58-0.84,1.25-1.22,2.02c-0.38,0.77-0.58,1.51-0.58,2.23c0,0.77,0.35,1.34,1.04,1.73c0.7,0.38,1.84,0.58,3.42,0.58h0.22
			v3.24H219.53z"/>
	</g>
	<path class="st0" d="M286.87,37.8c-4.53-0.44-8.49,2.18-8.84,5.84c-0.15,1.53,0.36,3,1.33,4.23
		c-19.72,21.75-49.31,28.92-82.03,19.85c-0.2-3.31-3.4-6.16-7.57-6.57c-4.53-0.44-8.49,2.18-8.84,5.84s3.03,6.99,7.56,7.43
		c2.22,0.21,4.3-0.31,5.89-1.32c10.33,2.99,20.38,4.48,29.98,4.48c23.87,0,44.91-9.14,60.29-26.66c0.31,0.06,0.63,0.11,0.95,0.14
		c4.53,0.44,8.49-2.18,8.84-5.84C294.78,41.57,291.4,38.24,286.87,37.8z"/>
</g>
</svg>
